<svg version="1.0" xmlns="http://www.w3.org/2000/svg"
 width="512.000000pt" height="512.000000pt" viewBox="0 0 512.000000 512.000000"
 preserveAspectRatio="xMidYMid meet">

<g transform="translate(0.000000,512.000000) scale(0.100000,-0.100000)"
fill="#000000" stroke="none">
<path d="M220 5103 c-99 -35 -172 -109 -204 -209 -15 -44 -16 -262 -14 -2354
l3 -2305 25 -50 c31 -64 91 -124 155 -155 l50 -25 2325 0 2325 0 50 25 c64 31
124 91 155 155 l25 50 0 2325 0 2325 -25 50 c-31 64 -91 124 -155 155 l-50 25
-2310 2 c-2081 2 -2314 1 -2355 -14z m4260 -2543 l0 -1920 -1920 0 -1920 0 0
1920 0 1920 1920 0 1920 0 0 -1920z"/>
<path d="M1180 4143 c-100 -35 -172 -108 -205 -210 -14 -42 -16 -87 -13 -274
3 -215 4 -226 28 -274 31 -64 92 -124 155 -155 41 -20 66 -24 135 -24 73 0 92
4 136 26 28 15 65 38 81 52 39 33 90 129 98 189 l7 47 319 0 319 0 0 -959 0
-960 -202 -3 c-192 -3 -206 -4 -253 -28 -64 -31 -124 -91 -155 -155 -34 -69
-35 -198 -2 -265 34 -71 75 -113 144 -151 l63 -34 725 0 725 0 51 27 c76 40
107 70 145 140 31 58 34 70 33 148 0 69 -5 94 -24 135 -31 63 -91 124 -155
155 -47 24 -61 25 -252 28 l-203 3 0 960 0 959 319 0 318 0 6 -45 c14 -101 87
-198 182 -245 41 -19 66 -24 135 -24 78 -1 90 2 148 33 70 38 100 69 140 145
l27 51 0 245 0 245 -34 63 c-37 69 -79 109 -151 144 l-45 23 -1350 2 c-1209 2
-1355 1 -1395 -14z"/>
</g>
</svg>
